HIERARCHY
ROOT Hips
{
	OFFSET 0.00000 0.00000 0.00000
	CHANNELS 6 Xposition Yposition Zposition Zrotation Yrotation Xrotation 
	JOINT LHipJoint
	{
		OFFSET 0 0 0
		CHANNELS 3 Zrotation Yrotation Xrotation
		JOINT LeftHip
		{
			OFFSET 3.13874 -1.57224 1.49786
			CHANNELS 3 Zrotation Yrotation Xrotation
			JOINT LeftKnee
			{
				OFFSET 2.10955 -5.79594 0.00000
				CHANNELS 3 Zrotation Yrotation Xrotation
				JOINT LeftAnkle
				{
					OFFSET 2.41843 -6.64458 0.00000
					CHANNELS 3 Zrotation Yrotation Xrotation
					JOINT LeftToe
					{
						OFFSET 0.04713 -0.12948 1.66229
						CHANNELS 3 Zrotation Yrotation Xrotation
						End Site
						{
							OFFSET 0.00000 -0.00000 0.85167
						}
					}
				}
			}
		}
	}
	JOINT RHipJoint
	{
		OFFSET 0 0 0
		CHANNELS 3 Zrotation Yrotation Xrotation
		JOINT RightHip
		{
			OFFSET -3.13988 -1.57224 1.49786
			CHANNELS 3 Zrotation Yrotation Xrotation
			JOINT RightKnee
			{
				OFFSET -2.15006 -5.90725 0.00000
				CHANNELS 3 Zrotation Yrotation Xrotation
				JOINT RightAnkle
				{
					OFFSET -2.34496 -6.44273 0.00000
					CHANNELS 3 Zrotation Yrotation Xrotation
					JOINT RightToe
					{
						OFFSET -0.08699 -0.23900 1.55223
						CHANNELS 3 Zrotation Yrotation Xrotation
						End Site
						{
							OFFSET -0.00000 -0.00000 0.80281
						}
					}
				}
			}
		}
	}
	JOINT lowerback
	{
		OFFSET 0 0 0
		CHANNELS 3 Zrotation Yrotation Xrotation
		JOINT Chest
		{
			OFFSET 0.01292 1.96517 -0.16495
			CHANNELS 3 Zrotation Yrotation Xrotation
			JOINT Chest2
			{
				OFFSET 0.02122 1.88666 0.19706
				CHANNELS 3 Zrotation Yrotation Xrotation
				JOINT lowerneck
				{
					OFFSET 0 0 0
					CHANNELS 3 Zrotation Yrotation Xrotation
					JOINT Neck
					{
						OFFSET -0.01683 1.81591 0.07903
						CHANNELS 3 Zrotation Yrotation Xrotation
						JOINT Head
						{
							OFFSET 0.00815 1.74013 -0.47700
							CHANNELS 3 Zrotation Yrotation Xrotation
							End Site
							{
								OFFSET -0.00204 1.83225 -0.16933
							}
						}
					}
				}
				JOINT LeftCollar
				{
					OFFSET 0 0 0
					CHANNELS 3 Zrotation Yrotation Xrotation
					JOINT LeftShoulder
					{
						OFFSET 3.38482 1.41533 0.19802
CHANNELS 3 Zrotation Xrotation Yrotation
						JOINT LeftElbow
						{
OFFSET 0 -4.327120 0.000000
CHANNELS 3 Zrotation Xrotation Yrotation
							JOINT LeftWrist
							{
OFFSET 0 -3.285870 -0.000000
CHANNELS 3 Zrotation Xrotation Yrotation
								JOINT lhand
								{
									OFFSET 0 0 0
CHANNELS 3 Zrotation Xrotation Yrotation
									JOINT LFingers
									{
OFFSET 0 -0.433160 -0.000000
CHANNELS 3 Zrotation Xrotation Yrotation
										End Site
										{
OFFSET 0 -0.349220 -0.000000
										}
									}
								}
								JOINT LThumb
								{
OFFSET 0 0.000000 0.000000
CHANNELS 3 Zrotation Xrotation Yrotation
									End Site
									{
OFFSET 0 -0.354560 0.354560
									}
								}
							}
						}
					}
				}
				JOINT RightCollar
				{
					OFFSET 0 0 0
					CHANNELS 3 Zrotation Yrotation Xrotation
					JOINT RightShoulder
					{
						OFFSET -3.09725 1.62858 -0.14144
CHANNELS 3 Zrotation Xrotation Yrotation
						JOINT RightElbow
						{
OFFSET 0 -4.291040 0.000000
CHANNELS 3 Zrotation Xrotation Yrotation
							JOINT RightWrist
							{
OFFSET 0 -3.227200 -0.000000
CHANNELS 3 Zrotation Xrotation Yrotation
								JOINT rhand
								{
									OFFSET 0 0 0
CHANNELS 3 Zrotation Xrotation Yrotation
									JOINT RFingers
									{
OFFSET 0 -0.543620 -0.000000
CHANNELS 3 Zrotation Xrotation Yrotation
										End Site
										{
OFFSET 0 -0.438280 -0.000000
										}
									}
								}
								JOINT RThumb
								{
OFFSET 0 0.000000 0.000000
CHANNELS 3 Zrotation Xrotation Yrotation
									End Site
									{
OFFSET 0 -0.444970 0.444970
									}
								}
							}
						}
					}
				}
			}
		}
	}
}
MOTION
Frames: 6
Frame Time: 0.008333333333333333
-21.836269 15.891212 6.704032 -175.063506 -21.586145 -168.813120 0.000000 0.000000 0.000000 -0.985515 -26.542312 -10.035804 0.435237 4.233344 11.734100 0.288663 13.801107 -22.622728 12.491605 -18.590828 -67.538841 0.000000 0.000000 0.000000 42.732957 35.772552 16.500971 -0.443521 4.272955 -11.845919 -5.779994 -25.029158 -57.270858 -1.742897 -8.308675 23.655665 1.407341 1.196273 9.005844 4.209730 1.848339 -8.506542 3.572535 0.792486 -14.614192 -7.533160 -4.905094 -13.373805 12.319890 -9.856319 24.182171 4.280662 -4.348563 11.009556 0.000000 0.000000 0.000000 58.502018 -3.657909 20.077677 155.045170 -36.157806 111.736739 72.139100 98.971805 -39.634041 0.000000 0.000000 0.000000 -7.125000 0.000000 0.000000 116.030964 -74.507809 131.190642 0.000000 0.000000 0.000000 -65.081266 14.261255 -27.669654 -149.712923 -41.138158 -108.401967 -46.535499 20.362029 6.341014 0.000000 0.000000 0.000000 7.125000 0.000000 0.000000 -17.048781 38.604240 -2.781959
-21.831516 15.891769 6.707827 -175.089357 -21.640310 -168.752533 0.000000 0.000000 0.000000 -0.953159 -26.592435 -10.116484 0.432583 4.220730 11.698479 0.268503 13.889340 -22.537574 12.498165 -18.593406 -67.559449 0.000000 0.000000 0.000000 42.655378 35.728019 16.378406 -0.445285 4.281291 -11.869429 -5.776722 -24.982752 -57.232553 -1.740488 -8.303237 23.638902 1.422371 1.214923 9.023314 4.162325 1.875713 -8.496500 3.503827 0.802290 -14.611633 -7.733115 -4.872489 -13.280120 12.433537 -9.810293 24.224285 4.367618 -4.339113 11.017292 0.000000 0.000000 0.000000 58.558288 -3.705089 20.062252 154.988109 -36.216135 111.703069 72.188527 99.091073 -39.668631 0.000000 0.000000 0.000000 -7.125000 0.000000 0.000000 116.294145 -74.482092 131.452688 0.000000 0.000000 0.000000 -65.103233 14.293608 -27.674052 -149.721715 -41.130718 -108.407763 -46.489250 20.332637 6.336142 0.000000 0.000000 0.000000 7.125000 0.000000 0.000000 -17.007162 38.592806 -2.779601
-21.827120 15.892438 6.711318 -175.111765 -21.687793 -168.703816 0.000000 0.000000 0.000000 -0.926471 -26.644695 -10.174482 0.429724 4.207101 11.660021 0.254735 13.952045 -22.482394 12.493166 -18.591434 -67.543729 0.000000 0.000000 0.000000 42.585912 35.684032 16.265944 -0.446412 4.286658 -11.884561 -5.771207 -24.945606 -57.193524 -1.734085 -8.288747 23.594442 1.445443 1.233306 9.043916 4.119591 1.904287 -8.485354 3.435612 0.811997 -14.609728 -7.950532 -4.836184 -13.173133 12.559550 -9.758624 24.260595 4.463294 -4.328261 11.020991 0.000000 0.000000 0.000000 58.604424 -3.752695 20.040585 154.935316 -36.270023 111.671895 72.235203 99.219159 -39.699701 0.000000 0.000000 0.000000 -7.125000 0.000000 0.000000 116.535910 -74.457430 131.694217 0.000000 0.000000 0.000000 -65.119242 14.314181 -27.669213 -149.731135 -41.122764 -108.413967 -46.429163 20.245849 6.266737 0.000000 0.000000 0.000000 7.125000 0.000000 0.000000 -16.938220 38.491110 -2.811425
-21.823309 15.893214 6.714226 -175.127270 -21.723650 -168.674743 0.000000 0.000000 0.000000 -0.907799 -26.700193 -10.194575 0.426494 4.191401 11.615829 0.254928 13.955663 -22.488532 12.466612 -18.580967 -67.460320 0.000000 0.000000 0.000000 42.531577 35.641585 16.170841 -0.446476 4.286981 -11.885466 -5.761709 -24.925448 -57.153273 -1.721098 -8.259286 23.504379 1.480461 1.251848 9.069242 4.084768 1.935622 -8.471076 3.368937 0.822076 -14.607079 -8.154304 -4.800197 -13.076286 12.662470 -9.704353 24.303753 4.548511 -4.316826 11.026547 0.000000 0.000000 0.000000 58.625874 -3.806514 20.001239 154.895582 -36.310532 111.648314 72.277844 99.370922 -39.722701 0.000000 0.000000 0.000000 -7.125000 0.000000 0.000000 116.734514 -74.434042 131.895664 0.000000 0.000000 0.000000 -65.120599 14.314633 -27.651898 -149.741989 -41.113590 -108.421074 -46.347628 20.095248 6.117751 0.000000 0.000000 0.000000 7.125000 0.000000 0.000000 -16.832328 38.278034 -2.883914
-21.819904 15.894030 6.716726 -175.139518 -21.753316 -168.657482 0.000000 0.000000 0.000000 -0.894260 -26.754795 -10.193690 0.423019 4.174439 11.567971 0.263676 13.920909 -22.529579 12.427919 -18.565694 -67.338825 0.000000 0.000000 0.000000 42.488566 35.599178 16.087878 -0.445848 4.284126 -11.877368 -5.752008 -24.909161 -57.114937 -1.705872 -8.224530 23.398185 1.521425 1.269413 9.094853 4.056421 1.966793 -8.455331 3.306213 0.831747 -14.602882 -8.321375 -4.767795 -12.999969 12.722456 -9.651712 24.359620 4.611080 -4.305960 11.036706 0.000000 0.000000 0.000000 58.640440 -3.853774 19.966170 154.868028 -36.338617 111.631983 72.303906 99.493397 -39.738247 0.000000 0.000000 0.000000 -7.125000 0.000000 0.000000 116.861629 -74.419860 132.023625 0.000000 0.000000 0.000000 -65.113727 14.299932 -27.625866 -149.751703 -41.105312 -108.427488 -46.265523 19.940819 5.950395 0.000000 0.000000 0.000000 7.125000 0.000000 0.000000 -16.722200 38.040069 -2.964958
-21.816781 15.894859 6.718928 -175.149427 -21.779016 -168.648160 0.000000 0.000000 0.000000 -0.884370 -26.808075 -10.179127 0.419401 4.156742 11.517986 0.277352 13.864009 -22.590717 12.383266 -18.548048 -67.198620 0.000000 0.000000 0.000000 42.453490 35.556448 16.013471 -0.444772 4.279186 -11.863364 -5.742220 -24.895055 -57.077734 -1.689509 -8.187043 23.283691 1.566565 1.286010 9.120220 4.032789 1.997448 -8.438796 3.246553 0.840940 -14.597602 -8.461813 -4.738280 -12.938505 12.751398 -9.600763 24.424939 4.657155 -4.295744 11.050370 0.000000 0.000000 0.000000 58.650148 -3.895080 19.935029 154.849588 -36.357406 111.621071 72.316934 99.591549 -39.747683 0.000000 0.000000 0.000000 -7.125000 0.000000 0.000000 116.931605 -74.412917 132.093038 0.000000 0.000000 0.000000 -65.102161 14.274822 -27.593678 -149.760470 -41.097799 -108.433310 -46.185081 19.788248 5.775156 0.000000 0.000000 0.000000 7.125000 0.000000 0.000000 -16.612051 37.791684 -3.049568
